#!OML:ASF H:\Terrain\Patient Classification 1\Animal2\Wednesday\Animal2.ASF
:FULLY-SPECIFIED
:DEGREES
4593
root 11.7799 16.178 -30.2942 8.23442 -9.59625 -0.111524
lowerback 6.51469 -2.30211 0.919169
upperback -8.83133 -3.03546 0.0899914
thorax -13.3272 -1.5417 0.131737
lowerneck 0.187781 8.55786 16.1679
upperneck -1.3743 11.6692 -20.1545
head 1.7996 5.82018 -8.49902
rclavicle 1.34987e-014 -4.91992e-015
rhumerus -41.9792 -24.7042 3.52317
rradius 49.5357
rwrist -14.1646
rhand 16.7044 18.0663
rfingers 7.12502
rthumb 41.4535 -6.70421
lclavicle 1.34987e-014 -4.91992e-015
lhumerus -50.9026 18.5146 -11.7522
lradius 58.603
lwrist 47.3311
lhand -6.85246 35.2629
lfingers 7.12502
lthumb 19.0127 64.3536
rfemur -24.7419 -7.79398 2.9625
rtibia 48.0836
rfoot -33.005 0.24872
rtoes -26.6742
lfemur -24.9876 5.36762 -0.0692296
ltibia 44.705
lfoot -26.6488 -9.31595
ltoes -34.3037
4594
root 11.7821 16.1463 -30.3113 8.10849 -9.69327 0.153472
lowerback 6.70964 -2.28709 0.578947
upperback -8.83315 -3.06042 0.0713172
thorax -13.4327 -1.51982 0.314254
lowerneck 0.480446 8.52462 16.1843
upperneck -1.50308 11.6484 -20.2559
head 1.71766 5.82717 -8.55359
rclavicle -7.20594e-015 -1.9133e-015
rhumerus -41.613 -24.5361 3.65614
rradius 49.682
rwrist -14.0951
rhand 16.5326 18.0657
rfingers 7.12502
rthumb 41.2923 -6.75711
lclavicle -7.20594e-015 -1.9133e-015
lhumerus -50.7749 18.465 -12.0334
lradius 58.7733
lwrist 47.3689
lhand -6.7984 35.5541
lfingers 7.12502
lthumb 19.0647 64.6398
rfemur -25.0233 -7.8339 2.61391
rtibia 48.585
rfoot -33.1971 0.464426
rtoes -26.2077
lfemur -25.0488 5.34829 -0.32382
ltibia 44.9794
lfoot -26.9067 -9.25864
ltoes -34.2149
4595
root 11.7817 16.1167 -30.324 8.12398 -9.86205 0.24637
lowerback 6.61163 -2.19986 0.411888
upperback -8.75816 -2.96632 0.0402422
thorax -13.2741 -1.46178 0.349285
lowerneck 0.455099 8.48282 16.3526
upperneck -1.43301 11.6027 -20.411
head 1.75464 5.80233 -8.63401
rclavicle 2.34783e-014 -1.27968e-014
rhumerus -41.5183 -24.5914 3.90527
rradius 49.9076
rwrist -13.4335
rhand 16.2568 18.3882
rfingers 7.12502
rthumb 41.0333 -6.51764
lclavicle 2.34783e-014 -1.27968e-014
lhumerus -50.4786 18.4867 -12.1736
lradius 58.9763
lwrist 47.456
lhand -7.06896 35.5794
lfingers 7.12502
lthumb 18.8045 64.6905
rfemur -25.4227 -7.77442 2.46381
rtibia 49.0993
rfoot -33.3883 0.825842
rtoes -25.481
lfemur -25.2298 5.45016 -0.388654
ltibia 45.3387
lfoot -27.1608 -9.24929
ltoes -34.1825
4596
root 11.7835 16.092 -30.3355 8.1827 -9.88688 0.0255151
lowerback 6.61133 -2.14995 0.65926
upperback -8.71139 -2.86526 0.0414077
thorax -13.232 -1.43778 0.193158
lowerneck 0.478693 8.43413 16.4452
upperneck -1.37642 11.5472 -20.4223
head 1.7625 5.7753 -8.65817
rclavicle 3.49737e-015 -1.2424e-015
rhumerus -41.5112 -24.4485 4.07405
rradius 50.1417
rwrist -13.0393
rhand 15.1103 18.5235
rfingers 7.12502
rthumb 39.9554 -6.71602
lclavicle 3.49737e-015 -1.2424e-015
lhumerus -50.0956 18.3825 -12.3013
lradius 59.1822
lwrist 47.6722
lhand -7.68742 35.4494
lfingers 7.12502
lthumb 18.2096 64.617
rfemur -25.7549 -7.74306 2.68575
rtibia 49.5912
rfoot -33.5718 0.917348
rtoes -25.1304
lfemur -25.5027 5.56037 -0.102601
ltibia 45.7652
lfoot -27.3657 -9.40849
ltoes -34.0905
4597
root 11.7883 16.065 -30.3492 8.15805 -9.88632 -0.0154107
lowerback 6.87294 -2.15158 0.726225
upperback -8.78167 -2.85709 0.0498562
thorax -13.4825 -1.43793 0.177107
lowerneck 0.658243 8.38562 16.4547
upperneck -1.36452 11.5057 -20.4083
head 1.72683 5.76404 -8.66739
rclavicle -2.55066e-014 -5.76476e-015
rhumerus -41.31 -24.0211 4.10667
rradius 50.3735
rwrist -13.4438
rhand 13.6309 17.8843
rfingers 7.12502
rthumb 38.5614 -7.75998
lclavicle -2.55066e-014 -5.76476e-015
lhumerus -49.8398 18.1165 -12.4649
lradius 59.3804
lwrist 47.766
lhand -8.29687 35.5219
lfingers 7.12502
lthumb 17.6232 64.7432
rfemur -26.02 -7.82144 2.68739
rtibia 50.0539
rfoot -33.7357 1.05822
rtoes -24.6912
lfemur -25.7621 5.58152 -0.0288133
ltibia 46.2211
lfoot -27.6 -9.52998
ltoes -33.9084
4598
root 11.7917 16.0394 -30.3629 8.17734 -9.9251 0.0299322
lowerback 6.95476 -2.15399 0.670531
upperback -8.78084 -2.86352 0.0827297
thorax -13.528 -1.43277 0.248892
lowerneck 0.628011 8.41252 16.2665
upperneck -1.28701 11.5422 -20.2482
head 1.73802 5.7796 -8.57745
rclavicle -7.47089e-014 -2.73329e-015
rhumerus -41.048 -24.0251 4.27688
rradius 50.5295
rwrist -13.2379
rhand 12.9313 17.8255
rfingers 7.12502
rthumb 37.901 -8.00057
lclavicle -7.47089e-014 -2.73329e-015
lhumerus -49.7157 18.1051 -12.5993
lradius 59.5261
lwrist 47.6036
lhand -8.81351 35.6305
lfingers 7.12502
lthumb 17.126 64.8957
rfemur -26.338 -7.95015 2.59969
rtibia 50.476
rfoot -33.8744 0.808946
rtoes -25.8281
lfemur -26.0502 5.66958 -0.0642198
ltibia 46.6594
lfoot -27.8161 -9.60709
ltoes -33.856
4599
root 11.7931 16.0185 -30.3762 8.20734 -9.97382 0.0718152
lowerback 6.87989 -2.14221 0.608293
upperback -8.6916 -2.85421 0.0895065
thorax -13.3715 -1.42256 0.283245
lowerneck 0.447107 8.46593 16.3017
upperneck -1.03887 11.6252 -20.2537
head 1.85723 5.8079 -8.56519
rclavicle -3.38245e-014 7.0817e-015
rhumerus -40.9238 -24.2464 4.47735
rradius 50.8336
rwrist -13.2745
rhand 12.2111 18.0836
rfingers 7.12502
rthumb 37.2203 -7.92357
lclavicle -3.38245e-014 7.0817e-015
lhumerus -49.6207 18.1924 -12.6931
lradius 59.7273
lwrist 47.701
lhand -9.57415 35.3444
lfingers 7.12502
lthumb 16.3937 64.6716
rfemur -26.6548 -7.96679 2.53236
rtibia 50.8701
rfoot -33.9958 0.334674
rtoes -27.2706
lfemur -26.3244 5.77362 -0.0840893
ltibia 47.0572
lfoot -27.9496 -9.70954
ltoes -33.8686
4600
root 11.7948 16 -30.3904 8.19611 -10.0222 0.0828199
lowerback 6.9381 -2.10221 0.601124
upperback -8.62628 -2.80506 0.0413417
thorax -13.3329 -1.40124 0.226022
lowerneck 0.260393 8.4736 16.6311
upperneck -0.808916 11.6512 -20.4798
head 1.99542 5.80768 -8.67974
rclavicle -1.19892e-014 -1.48592e-014
rhumerus -40.9494 -24.2346 4.49988
rradius 51.2807
rwrist -14.3741
rhand 11.0334 17.5271
rfingers 7.12502
rthumb 36.1058 -8.76332
lclavicle -1.19892e-014 -1.48592e-014
lhumerus -49.4319 18.2868 -12.7862
lradius 60.0533
lwrist 47.9791
lhand -10.2782 35.0782
lfingers 7.12502
lthumb 15.7158 64.4601
rfemur -26.919 -7.93335 2.49893
rtibia 51.2269
rfoot -34.1462 0.584802
rtoes -26.637
lfemur -26.5524 5.87189 -0.0669903
ltibia 47.4199
lfoot -28.0613 -9.8581
ltoes -33.8847
4601
root 11.7969 15.9813 -30.407 8.21546 -9.98966 -0.00208719
lowerback 7.10129 -2.12442 0.67353
upperback -8.65708 -2.81924 0.09137
thorax -13.4731 -1.41059 0.251006
lowerneck 0.453192 8.52787 16.3971
upperneck -0.877372 11.7345 -20.2709
head 1.92951 5.86025 -8.57511
rclavicle -3.44767e-015 3.80176e-015
rhumerus -40.7398 -24.1749 4.48269
rradius 51.5247
rwrist -14.7568
rhand 10.5323 17.3612
rfingers 7.12502
rthumb 35.631 -9.04508
lclavicle -3.44767e-015 3.80176e-015
lhumerus -49.4593 18.281 -12.8942
lradius 60.4096
lwrist 48.1271
lhand -10.8164 35.2318
lfingers 7.12502
lthumb 15.1974 64.6537
rfemur -27.1683 -7.98632 2.59982
rtibia 51.5372
rfoot -34.2849 0.70036
rtoes -26.3027
lfemur -26.8196 5.96863 0.0551014
ltibia 47.7458
lfoot -28.1612 -10.0426
ltoes -33.9868
4602
root 11.7988 15.9615 -30.4201 8.20918 -10.0393 -0.133689
lowerback 7.24152 -2.16591 0.759212
upperback -8.6672 -2.85046 0.200825
thorax -13.5721 -1.42574 0.335603
lowerneck 0.535783 8.63091 16.2138
upperneck -0.692013 11.9079 -20.1762
head 1.98228 5.94778 -8.49989
rclavicle -5.98839e-015 1.07344e-014
rhumerus -40.4544 -24.0881 4.38279
rradius 51.6915
rwrist -14.4805
rhand 9.07374 17.7526
rfingers 7.12502
rthumb 34.2473 -8.97594
lclavicle -5.98839e-015 1.07344e-014
lhumerus -49.6955 18.1194 -12.963
lradius 60.7174
lwrist 48.2227
lhand -11.5688 35.1794
lfingers 7.12502
lthumb 14.4725 64.6546
rfemur -27.3618 -7.86426 2.74161
rtibia 51.8196
rfoot -34.3738 0.137504
rtoes -27.4629
lfemur -26.9647 6.11018 0.220657
ltibia 48.0261
lfoot -28.3071 -10.2028
ltoes -34.3853
4603
root 11.7992 15.9461 -30.4283 8.18596 -10.1461 -0.151125
lowerback 7.28913 -2.09179 0.768176
upperback -8.5798 -2.75312 0.147077
thorax -13.5014 -1.38368 0.252576
lowerneck 0.227427 8.5907 16.5937
upperneck -0.40364 11.8643 -20.5092
head 2.15632 5.90566 -8.65701
rclavicle -9.91439e-015 9.93923e-017
rhumerus -40.6932 -23.8202 4.18658
rradius 51.9805
rwrist -14.922
rhand 6.3272 17.9248
rfingers 7.12502
rthumb 31.635 -9.35367
lclavicle -9.91439e-015 9.93923e-017
lhumerus -49.5459 18.1165 -12.801
lradius 61.0645
lwrist 48.3683
lhand -12.5522 34.9937
lfingers 7.12502
lthumb 13.5248 64.5344
rfemur -27.5399 -7.70287 2.74132
rtibia 52.0792
rfoot -34.3831 -0.199869
rtoes -28.1335
lfemur -27.0223 6.24254 0.248765
ltibia 48.2381
lfoot -28.5044 -10.2616
ltoes -34.6703
4604
root 11.7968 15.9348 -30.4449 8.26763 -10.0235 0.0567211
lowerback 7.30903 -2.08818 0.534593
upperback -8.61473 -2.78833 0.0813993
thorax -13.5464 -1.38139 0.319321
lowerneck 0.559484 8.49469 16.6504
upperneck -0.757134 11.7335 -20.624
head 1.98618 5.86383 -8.73767
rclavicle 1.635e-014 8.15017e-015
rhumerus -40.8584 -23.5606 3.99068
rradius 52.2419
rwrist -15.2795
rhand 4.67152 18.0253
rfingers 7.12502
rthumb 30.0566 -9.55165
lclavicle 1.635e-014 8.15017e-015
lhumerus -49.4528 18.0927 -12.6012
lradius 61.4439
lwrist 48.5093
lhand -13.4439 35.1531
lfingers 7.12502
lthumb 12.6653 64.749
rfemur -27.8251 -7.88847 2.54233
rtibia 52.3303
rfoot -34.4327 -0.0133281
rtoes -27.8289
lfemur -27.3514 6.23047 0.0405095
ltibia 48.3824
lfoot -28.5752 -10.3015
ltoes -34.3556
4605
root 11.7972 15.9265 -30.4629 8.3415 -9.80429 0.253721
lowerback 7.40177 -2.22083 0.317908
upperback -8.74821 -2.99437 0.136982
thorax -13.7485 -1.45254 0.548632
lowerneck 1.34271 8.53101 16.3664
upperneck -1.27333 11.8134 -20.5406
head 1.69796 5.95252 -8.70381
rclavicle 5.45105e-016 -7.91411e-015
rhumerus -40.6208 -23.4117 3.73462
rradius 52.5168
rwrist -15.4026
rhand 3.746 17.7029
rfingers 7.12502
rthumb 29.1732 -10.0309
lclavicle 5.45105e-016 -7.91411e-015
lhumerus -49.8097 17.9056 -12.6235
lradius 61.7257
lwrist 48.6216
lhand -13.8927 35.1887
lfingers 7.12502
lthumb 12.2326 64.8109
rfemur -28.0341 -8.13824 2.35728
rtibia 52.5342
rfoot -34.5122 0.160266
rtoes -27.545
lfemur -27.7106 6.12556 -0.156051
ltibia 48.4833
lfoot -28.546 -10.3509
ltoes -34.0502
4606
root 11.7988 15.9232 -30.4767 8.34047 -9.70528 0.312078
lowerback 7.5304 -2.2693 0.259266
upperback -8.76751 -3.06628 0.157742
thorax -13.8481 -1.47793 0.624629
lowerneck 1.23257 8.6098 16.4166
upperneck -1.00974 11.9481 -20.6606
head 1.82873 6.00976 -8.73039
rclavicle -3.17943e-014 -5.5287e-015
rhumerus -40.6298 -23.3835 3.58883
rradius 52.7246
rwrist -15.6179
rhand 2.19154 17.1233
rfingers 7.12502
rthumb 27.6878 -10.8586
lclavicle -3.17943e-014 -5.5287e-015
lhumerus -49.9952 17.8892 -12.5671
lradius 61.8802
lwrist 48.7859
lhand -14.2846 35.0756
lfingers 7.12502
lthumb 11.8547 64.7201
rfemur -28.1203 -8.19417 2.30609
rtibia 52.6489
rfoot -34.4894 0.0187447
rtoes -27.8198
lfemur -27.8583 6.05938 -0.207751
ltibia 48.552
lfoot -28.5294 -10.3609
ltoes -34.0658
4607
root 11.7983 15.9224 -30.4904 8.4132 -9.68911 0.134638
lowerback 7.61289 -2.22414 0.416187
upperback -8.73821 -2.98052 0.166951
thorax -13.8739 -1.45182 0.533595
lowerneck 0.758175 8.60482 16.6702
upperneck -0.613592 11.9425 -20.8735
head 2.05237 5.97577 -8.81334
rclavicle -1.94032e-014 -1.40392e-015
rhumerus -40.9235 -23.3321 3.52701
rradius 52.7969
rwrist -15.8328
rhand 0.562523 16.5452
rfingers 7.12502
rthumb 26.1291 -11.677
lclavicle -1.94032e-014 -1.40392e-015
lhumerus -49.954 18.0313 -12.3087
lradius 62.0915
lwrist 48.9728
lhand -15.0704 35.1057
lfingers 7.12502
lthumb 11.0969 64.7923
rfemur -28.2334 -8.13029 2.53252
rtibia 52.6717
rfoot -34.4721 -0.108689
rtoes -27.8646
lfemur -27.9796 6.15264 0.00745301
ltibia 48.5887
lfoot -28.4626 -10.4205
ltoes -34.1175
